<svg width="426" height="72" viewBox="0 0 426 72" fill="none" xmlns="http://www.w3.org/2000/svg">
<path d="M10.4738 41.3268H6.03098C5.1479 41.3268 4.34011 41.2241 3.60763 41.0256C2.87515 40.8271 2.23851 40.519 1.70456 40.1083C1.1706 39.6976 0.753017 39.1773 0.45181 38.5543C0.150603 37.9314 0 37.2058 0 36.3706C0 35.6518 0.136912 34.9946 0.403891 34.3854C0.670869 33.783 1.06791 33.2558 1.58818 32.8177C2.10845 32.3796 2.73824 32.0305 3.48441 31.7772C4.23059 31.5239 5.07944 31.4007 6.03098 31.4007H6.38011V30.5176H8.85137V38.8556H10.4738V41.32V41.3268ZM2.57395 28.8952C2.30012 28.6761 2.17006 28.3612 2.17006 27.9505C2.17006 27.574 2.30012 27.2728 2.5671 27.04C2.83408 26.8073 3.15582 26.6978 3.54602 26.6978C3.93622 26.6978 4.25797 26.8141 4.52495 27.04C4.79192 27.2728 4.92199 27.574 4.92199 27.9505C4.92199 28.3612 4.78508 28.6761 4.5181 28.8952C4.25112 29.1143 3.92253 29.2238 3.54602 29.2238C3.16952 29.2238 2.84777 29.1143 2.57395 28.8952ZM6.38011 33.872H5.42857C5.06575 33.872 4.70978 33.9267 4.35381 34.0431C3.99783 34.1526 3.68294 34.3169 3.40227 34.5291C3.1216 34.7413 2.89569 35.0015 2.72455 35.3164C2.55341 35.6313 2.47126 35.9804 2.47126 36.3843C2.47126 36.7882 2.55341 37.151 2.71086 37.459C2.86831 37.7671 3.08052 38.0204 3.3475 38.2326C3.61448 38.4448 3.91569 38.6023 4.25112 38.7118C4.5934 38.8213 4.94253 38.8692 5.31219 38.8692H6.38695V33.8788L6.38011 33.872ZM6.40064 28.8952C6.12682 28.6761 5.99675 28.3612 5.99675 27.9505C5.99675 27.574 6.12682 27.2728 6.3938 27.04C6.66078 26.8073 6.98252 26.6978 7.37272 26.6978C7.76292 26.6978 8.09835 26.8141 8.35849 27.04C8.61862 27.2659 8.74868 27.574 8.74868 27.9505C8.74868 28.3612 8.61177 28.6761 8.34479 28.8952C8.07097 29.1143 7.74923 29.2238 7.37272 29.2238C6.99621 29.2238 6.67447 29.1143 6.40064 28.8952Z" fill="white"/>
<path d="M13.8418 38.8623V31.4075H16.3062V41.3268H10.152V38.8623H13.835H13.8418ZM11.1447 44.7632C10.8777 44.551 10.7408 44.2361 10.7408 43.8322C10.7408 43.4557 10.8708 43.1477 11.1378 42.9149C11.4048 42.6822 11.7265 42.5658 12.1167 42.5658C12.5069 42.5658 12.8287 42.6822 13.0956 42.9149C13.3626 43.1477 13.4927 43.4557 13.4927 43.8322C13.4927 44.243 13.3558 44.551 13.0888 44.7632C12.8218 44.9755 12.4932 45.0781 12.1167 45.0781C11.7402 45.0781 11.4185 44.9686 11.1447 44.7632ZM14.9713 44.7632C14.7044 44.551 14.5675 44.2361 14.5675 43.8322C14.5675 43.4557 14.6975 43.1477 14.9645 42.9149C15.2315 42.6822 15.5532 42.5658 15.9434 42.5658C16.3336 42.5658 16.6691 42.6822 16.9292 42.9149C17.1893 43.1477 17.3194 43.4557 17.3194 43.8322C17.3194 44.243 17.1825 44.551 16.9155 44.7632C16.6485 44.9755 16.3199 45.0781 15.9434 45.0781C15.5669 45.0781 15.2452 44.9686 14.9713 44.7632Z" fill="white"/>
<path d="M24.4183 38.8623V36.1652C24.4183 35.8092 24.3773 35.5011 24.302 35.241C24.2267 34.9809 24.1034 34.7413 23.9391 34.5428C23.7885 34.3442 23.5763 34.1799 23.3162 34.0567C23.0492 33.9335 22.7617 33.8719 22.4468 33.8719H21.3857V31.4075H22.1935C22.9945 31.4075 23.6927 31.5102 24.2883 31.7155C24.8907 31.9209 25.411 32.2563 25.8559 32.7287C26.2324 33.1257 26.4994 33.6323 26.65 34.2552C26.8006 34.8713 26.8759 35.5422 26.8759 36.2747V38.8692H28.779V41.3336H18.2573V38.8692H24.4115L24.4183 38.8623Z" fill="white"/>
<path d="M32.147 38.8623V31.4075H34.6114V38.8623H37.8562V41.3268H28.4641V38.8623H32.147ZM30.3671 44.7632C30.1001 44.551 29.9632 44.2361 29.9632 43.8322C29.9632 43.4557 30.0933 43.1477 30.3603 42.9149C30.6273 42.6822 30.949 42.5658 31.3392 42.5658C31.7294 42.5658 32.0511 42.6822 32.3181 42.9149C32.5851 43.1477 32.7152 43.4557 32.7152 43.8322C32.7152 44.243 32.5783 44.551 32.3113 44.7632C32.0443 44.9755 31.7157 45.0781 31.3392 45.0781C30.9627 45.0781 30.641 44.9686 30.3671 44.7632ZM34.1938 44.7632C33.9268 44.551 33.7899 44.2361 33.7899 43.8322C33.7899 43.4557 33.92 43.1477 34.187 42.9149C34.454 42.6822 34.7757 42.5658 35.1659 42.5658C35.5561 42.5658 35.8915 42.6822 36.1517 42.9149C36.4118 43.1477 36.5419 43.4557 36.5419 43.8322C36.5419 44.243 36.405 44.551 36.138 44.7632C35.871 44.9755 35.5424 45.0781 35.1659 45.0781C34.7894 45.0781 34.4676 44.9686 34.1938 44.7632Z" fill="white"/>
<path d="M39.239 38.8624V27.0332H41.7034V38.8624H43.9625V41.3268H37.5139V38.8624H39.239Z" fill="white"/>
<path d="M45.975 38.8624C45.7149 38.5201 45.5095 38.1436 45.3589 37.7329C45.2083 37.3222 45.1262 36.8635 45.1262 36.3569C45.1262 35.5834 45.27 34.8851 45.5575 34.2759C45.845 33.6666 46.2489 33.1463 46.7623 32.7151C47.2826 32.2838 47.9055 31.962 48.6311 31.7361C49.3568 31.5102 50.1646 31.4007 51.0476 31.4007H53.957V38.8556H55.5794V41.32H43.6133V38.8556H45.975V38.8624ZM47.4537 29.5798C47.1867 29.3607 47.0498 29.0458 47.0498 28.6351C47.0498 28.2586 47.1799 27.9574 47.4469 27.7246C47.7138 27.4919 48.0356 27.3823 48.4258 27.3823C48.816 27.3823 49.1377 27.4987 49.4047 27.7246C49.6717 27.9574 49.8017 28.2586 49.8017 28.6351C49.8017 29.0458 49.6648 29.3607 49.3979 29.5798C49.1309 29.7988 48.8023 29.9084 48.4258 29.9084C48.0493 29.9084 47.7275 29.7988 47.4537 29.5798ZM47.9534 37.8013C48.193 38.2258 48.5216 38.5749 48.9324 38.8624H51.4858V33.872H50.4452C50.0893 33.872 49.7401 33.9267 49.3979 34.0294C49.0487 34.1321 48.7475 34.2964 48.4805 34.5018C48.2136 34.714 48.0013 34.9741 47.837 35.289C47.6728 35.5971 47.5906 35.953 47.5906 36.3569C47.5906 36.8977 47.707 37.3769 47.9534 37.8013ZM51.2804 29.5798C51.0134 29.3607 50.8765 29.0458 50.8765 28.6351C50.8765 28.2586 51.0066 27.9574 51.2735 27.7246C51.5405 27.4919 51.8623 27.3823 52.2525 27.3823C52.6427 27.3823 52.9781 27.4987 53.2382 27.7246C53.4984 27.9574 53.6284 28.2586 53.6284 28.6351C53.6284 29.0458 53.4915 29.3607 53.2245 29.5798C52.9576 29.7988 52.629 29.9084 52.2525 29.9084C51.876 29.9084 51.5542 29.7988 51.2804 29.5798Z" fill="white"/>
<path d="M58.9201 38.8624V31.4075H61.3845V38.8624H64.6294V41.3268H55.2372V38.8624H58.9201ZM57.1539 29.5798C56.8801 29.3607 56.7501 29.0458 56.7501 28.6351C56.7501 28.2586 56.8801 27.9574 57.1471 27.7246C57.4141 27.4919 57.7358 27.3823 58.126 27.3823C58.5162 27.3823 58.838 27.4987 59.1049 27.7246C59.3719 27.9505 59.502 28.2586 59.502 28.6351C59.502 29.0458 59.3651 29.3607 59.0981 29.5798C58.8243 29.7988 58.5025 29.9084 58.126 29.9084C57.7495 29.9084 57.4278 29.7988 57.1539 29.5798ZM60.9806 29.5798C60.7068 29.3607 60.5768 29.0458 60.5768 28.6351C60.5768 28.2586 60.7068 27.9574 60.9738 27.7246C61.2408 27.4919 61.5625 27.3823 61.9527 27.3823C62.3429 27.3823 62.6784 27.4987 62.9385 27.7246C63.1986 27.9505 63.3287 28.2586 63.3287 28.6351C63.3287 29.0458 63.1918 29.3607 62.9248 29.5798C62.651 29.7988 62.3292 29.9084 61.9527 29.9084C61.5762 29.9084 61.2545 29.7988 60.9806 29.5798Z" fill="white"/>
<path d="M66.0123 38.8624V27.0332H69.6267V29.4976H68.4835V41.3268H64.2872V38.8624H66.0123Z" fill="white"/>
<path d="M75.0894 27.0332V41.3268H72.625V27.0332H75.0894Z" fill="white"/>
<path d="M86.8228 41.2446C86.3915 41.1898 85.9945 41.1077 85.6317 40.9913C85.2688 40.8749 84.9334 40.7243 84.639 40.5395C84.3378 40.3615 84.0503 40.1356 83.7833 39.8823C83.3452 39.4716 83.044 38.9376 82.866 38.2873C82.6881 37.6369 82.5991 36.9524 82.5991 36.2336V32.8998H85.0703V35.9324C85.0703 36.4595 85.1251 36.9113 85.2346 37.281C85.3441 37.6506 85.5358 37.9518 85.8096 38.1914C86.1109 38.4516 86.4942 38.6295 86.9529 38.7185C87.4115 38.8144 87.9044 38.8623 88.4315 38.8623H93.3672V31.4074H95.8385V41.3267H88.2604C87.7333 41.3267 87.2541 41.2993 86.8228 41.2446ZM86.4258 30.5107C86.1588 30.2916 86.0219 29.9767 86.0219 29.566C86.0219 29.1895 86.1519 28.8883 86.4189 28.6623C86.6859 28.4364 87.0076 28.3201 87.3978 28.3201C87.788 28.3201 88.1098 28.4364 88.3768 28.6623C88.6437 28.8951 88.7738 29.1963 88.7738 29.566C88.7738 29.9767 88.6369 30.2916 88.3699 30.5107C88.1029 30.7297 87.7743 30.8392 87.3978 30.8392C87.0213 30.8392 86.6996 30.7297 86.4258 30.5107ZM90.2524 30.5107C89.9855 30.2916 89.8486 29.9767 89.8486 29.566C89.8486 29.1895 89.9786 28.8883 90.2456 28.6623C90.5126 28.4364 90.8343 28.3201 91.2245 28.3201C91.6147 28.3201 91.9502 28.4364 92.2103 28.6623C92.4704 28.8883 92.6005 29.1963 92.6005 29.566C92.6005 29.9767 92.4636 30.2916 92.1966 30.5107C91.9296 30.7297 91.601 30.8392 91.2245 30.8392C90.848 30.8392 90.5263 30.7297 90.2524 30.5107Z" fill="white"/>
<path d="M101.685 27.0332V38.8624H103.944V41.3268H99.2202V27.0332H101.685Z" fill="white"/>
<path d="M105.511 38.8623C105.313 38.4516 105.135 37.9998 104.991 37.5069C104.847 37.014 104.772 36.4869 104.772 35.9187C104.772 35.0699 104.936 34.3305 105.265 33.6939C105.594 33.0573 106.018 32.5301 106.531 32.1057C106.942 31.7634 107.421 31.5033 107.969 31.3322C108.517 31.1542 109.105 31.0652 109.742 31.0652C110.379 31.0652 111.029 31.1542 111.618 31.3185C112.213 31.4896 112.809 31.7292 113.404 32.0304L112.576 34.2689C112.2 34.0567 111.789 33.8787 111.337 33.7281C110.885 33.5844 110.454 33.5091 110.043 33.5091C109.235 33.5091 108.592 33.7076 108.12 34.1115C107.805 34.3785 107.579 34.6865 107.449 35.0151C107.319 35.3505 107.257 35.7134 107.257 36.0967C107.257 36.658 107.339 37.1715 107.503 37.6233C107.668 38.0751 107.9 38.4858 108.188 38.8486H113.774V41.3131H103.588V38.8486H105.511V38.8623Z" fill="white"/>
<path d="M119.209 27.0332V38.8624H121.468V41.3268H116.745V27.0332H119.209Z" fill="white"/>
<path d="M123.303 38.8623V31.4074H125.768V38.8623H127.65V41.3267H121.113V38.8623H123.296H123.303ZM123.454 29.5728C123.166 29.3538 123.022 29.0183 123.022 28.5871C123.022 28.1969 123.159 27.882 123.44 27.6424C123.714 27.4028 124.063 27.2795 124.474 27.2795C124.884 27.2795 125.227 27.4028 125.507 27.6424C125.781 27.882 125.925 28.1969 125.925 28.5871C125.925 29.0252 125.781 29.3538 125.494 29.5728C125.206 29.7987 124.871 29.9083 124.481 29.9083C124.09 29.9083 123.755 29.7987 123.467 29.5728H123.454Z" fill="white"/>
<path d="M129.053 38.8623V31.4075H131.518V32.2905H136.892C137.693 32.2905 138.391 32.3932 138.986 32.5986C139.589 32.804 140.109 33.1394 140.554 33.6118C140.93 34.0088 141.197 34.5154 141.348 35.1383C141.499 35.7544 141.581 36.4253 141.581 37.1578V38.8692H143.484V41.3336H127.321V38.8692H129.046L129.053 38.8623ZM131.518 38.8623H139.116V37.0483C139.116 36.6923 139.082 36.3842 139 36.1241C138.925 35.8571 138.801 35.6244 138.637 35.4258C138.487 35.2273 138.274 35.063 138.014 34.933C137.747 34.8029 137.46 34.7413 137.145 34.7413H131.525V38.8692L131.518 38.8623Z" fill="white"/>
<path d="M144.887 38.8624V27.0332H148.502V29.4976H147.359V41.3268H143.162V38.8624H144.887Z" fill="white"/>
<path d="M153.971 27.0332V41.3268H151.507V27.0332H153.971Z" fill="white"/>
<path d="M164.856 42.4974C164.705 43.0587 164.459 43.531 164.117 43.9349C163.767 44.332 163.309 44.6469 162.727 44.8659C162.145 45.085 161.419 45.2014 160.55 45.2014C160.317 45.2014 160.098 45.1945 159.9 45.174C159.701 45.1535 159.503 45.1329 159.311 45.0918C159.119 45.0576 158.914 45.0165 158.702 44.9686L157.983 44.7769L157.805 42.292C158.284 42.4426 158.736 42.559 159.147 42.6274C159.557 42.6959 159.968 42.7301 160.379 42.7301C160.721 42.7301 161.022 42.7164 161.276 42.689C161.536 42.6616 161.755 42.5932 161.94 42.4974C162.124 42.3947 162.268 42.2509 162.378 42.0661C162.487 41.8813 162.563 41.628 162.597 41.3268H162.316C161.467 41.3268 160.68 41.2309 159.948 41.0461C159.215 40.8544 158.572 40.5669 158.024 40.163C157.476 39.766 157.052 39.2525 156.737 38.6227C156.422 37.9929 156.271 37.2399 156.271 36.3568C156.271 35.5833 156.422 34.885 156.723 34.2758C157.025 33.6665 157.442 33.1463 157.976 32.7218C158.51 32.2974 159.147 31.9757 159.886 31.7429C160.625 31.5102 161.44 31.4006 162.316 31.4006H165.102L165.082 40.6559C165.082 41.3268 165.006 41.9429 164.863 42.4974H164.856ZM158.948 37.4385C159.099 37.7465 159.297 38.0135 159.557 38.2189C159.818 38.4311 160.119 38.5885 160.468 38.698C160.817 38.8076 161.187 38.8555 161.584 38.8555H162.624V33.865H161.584C161.221 33.865 160.865 33.9267 160.516 34.043C160.167 34.1594 159.865 34.3306 159.598 34.5428C159.331 34.7618 159.119 35.022 158.962 35.3232C158.804 35.6312 158.722 35.9735 158.722 36.3432C158.722 36.7539 158.798 37.1167 158.941 37.4248L158.948 37.4385Z" fill="white"/>
<path d="M182.887 41.3268H178.444C177.561 41.3268 176.754 41.2241 176.021 41.0256C175.289 40.8271 174.652 40.519 174.118 40.1083C173.584 39.6976 173.166 39.1773 172.865 38.5543C172.564 37.9314 172.413 37.2058 172.413 36.3706C172.413 35.6518 172.55 34.9946 172.817 34.3854C173.084 33.783 173.481 33.2558 174.002 32.8177C174.522 32.3796 175.152 32.0305 175.898 31.7772C176.644 31.5239 177.493 31.4007 178.444 31.4007H178.793V30.5176H181.265V38.8556H182.887V41.32V41.3268ZM174.994 28.8952C174.72 28.6761 174.59 28.3612 174.59 27.9505C174.59 27.574 174.72 27.2728 174.987 27.04C175.254 26.8073 175.576 26.6978 175.966 26.6978C176.356 26.6978 176.678 26.8141 176.945 27.04C177.212 27.2728 177.342 27.574 177.342 27.9505C177.342 28.3612 177.205 28.6761 176.938 28.8952C176.671 29.1143 176.343 29.2238 175.966 29.2238C175.59 29.2238 175.268 29.1143 174.994 28.8952ZM178.8 33.872H177.849C177.486 33.872 177.13 33.9267 176.774 34.0431C176.418 34.1526 176.103 34.3169 175.823 34.5291C175.542 34.7413 175.316 35.0015 175.145 35.3164C174.974 35.6313 174.891 35.9804 174.891 36.3843C174.891 36.7882 174.974 37.151 175.131 37.459C175.289 37.7671 175.501 38.0204 175.768 38.2326C176.035 38.4448 176.336 38.6023 176.671 38.7118C177.014 38.8213 177.363 38.8692 177.732 38.8692H178.807V33.8788L178.8 33.872ZM178.814 28.8952C178.54 28.6761 178.41 28.3612 178.41 27.9505C178.41 27.574 178.54 27.2728 178.807 27.04C179.074 26.8073 179.396 26.6978 179.786 26.6978C180.176 26.6978 180.512 26.8141 180.772 27.04C181.032 27.2659 181.162 27.574 181.162 27.9505C181.162 28.3612 181.025 28.6761 180.758 28.8952C180.484 29.1143 180.163 29.2238 179.786 29.2238C179.41 29.2238 179.088 29.1143 178.814 28.8952Z" fill="white"/>
<path d="M189.87 38.8623C189.966 38.4721 190.034 38.0545 190.089 37.589C190.144 37.1304 190.171 36.7128 190.171 36.3363C190.171 35.9598 190.102 35.597 189.966 35.1999C189.829 34.8097 189.61 34.4743 189.308 34.2073C188.802 33.7624 188.11 33.5364 187.227 33.5364C186.755 33.5364 186.331 33.5912 185.94 33.7007C185.55 33.8103 185.133 34.0156 184.674 34.31L183.654 32.1605C184.229 31.8319 184.838 31.5649 185.468 31.3664C186.105 31.1679 186.789 31.0652 187.529 31.0652C188.268 31.0652 188.918 31.1816 189.514 31.4212C190.109 31.6539 190.616 31.9893 191.04 32.4275C191.513 32.8998 191.896 33.4748 192.19 34.1662C192.485 34.8508 192.628 35.6449 192.628 36.5348C192.628 37.0072 192.601 37.4658 192.539 37.9245C192.478 38.3831 192.409 38.8213 192.327 39.2457C192.245 39.6701 192.156 40.0535 192.053 40.4094C191.958 40.7654 191.862 41.0666 191.78 41.3268H182.559V38.8623H189.877H189.87Z" fill="white"/>
<path d="M198.201 27.0332V38.8624H200.46V41.3268H195.736V27.0332H198.201Z" fill="white"/>
<path d="M203.787 38.8623V31.4075H206.251V38.8623H209.496V41.3268H200.104V38.8623H203.787ZM202.007 44.7632C201.74 44.551 201.603 44.2361 201.603 43.8322C201.603 43.4557 201.733 43.1477 202 42.9149C202.267 42.6822 202.589 42.5658 202.979 42.5658C203.369 42.5658 203.691 42.6822 203.958 42.9149C204.225 43.1477 204.355 43.4557 204.355 43.8322C204.355 44.243 204.218 44.551 203.951 44.7632C203.684 44.9755 203.356 45.0781 202.979 45.0781C202.603 45.0781 202.281 44.9686 202.007 44.7632ZM205.834 44.7632C205.567 44.551 205.43 44.2361 205.43 43.8322C205.43 43.4557 205.56 43.1477 205.827 42.9149C206.094 42.6822 206.416 42.5658 206.806 42.5658C207.196 42.5658 207.531 42.6822 207.792 42.9149C208.052 43.1477 208.182 43.4557 208.182 43.8322C208.182 44.243 208.045 44.551 207.778 44.7632C207.511 44.9755 207.182 45.0781 206.806 45.0781C206.429 45.0781 206.107 44.9686 205.834 44.7632Z" fill="white"/>
<path d="M222.681 38.4311C223.085 38.835 223.626 39.0404 224.296 39.0404C225.001 39.0404 225.529 38.8418 225.885 38.4448C226.241 38.0477 226.412 37.5069 226.412 36.8224V30.1753H228.862V36.5006C228.862 36.7813 228.849 37.0483 228.828 37.3016C228.801 37.5549 228.773 37.8013 228.739 38.034C229.259 38.5885 230.081 38.8624 231.21 38.8624V41.3268C230.731 41.3268 230.314 41.2857 229.958 41.2036C229.602 41.1214 229.307 41.0119 229.061 40.8681C228.814 40.7244 228.609 40.5669 228.452 40.3889C228.294 40.2109 228.157 40.033 228.055 39.8618C227.315 40.9571 226.063 41.4979 224.303 41.4979C223.961 41.4979 223.626 41.4705 223.297 41.4158C222.968 41.361 222.647 41.272 222.345 41.142C222.044 41.0119 221.757 40.8408 221.49 40.6217C221.223 40.4026 220.99 40.1288 220.791 39.8002C220.346 40.2726 219.813 40.6422 219.203 40.9092C218.594 41.1762 217.951 41.3131 217.28 41.3131H209.174V38.8487H213.015V32.2769H215.479V38.8487H217.28C217.54 38.8487 217.807 38.8144 218.081 38.7528C218.354 38.6912 218.608 38.568 218.84 38.3969C219.066 38.2257 219.251 37.9998 219.395 37.7192C219.539 37.4385 219.607 37.0757 219.607 36.6444V32.2769H222.072V36.5417C222.072 37.3837 222.277 38.0135 222.681 38.4174V38.4311Z" fill="white"/>
<path d="M232.573 38.8624V27.0332H236.187V29.4976H235.044V41.3268H230.847V38.8624H232.573Z" fill="white"/>
<path d="M241.65 27.0332V41.3268H239.185V27.0332H241.65Z" fill="white"/>
<path d="M252.836 41.0256C252.103 40.8271 251.467 40.519 250.933 40.1083C250.399 39.6976 249.981 39.1773 249.68 38.5543C249.379 37.9314 249.228 37.2058 249.228 36.3706C249.228 35.6518 249.365 34.9946 249.632 34.3854C249.899 33.783 250.296 33.2558 250.816 32.8177C251.336 32.3796 251.966 32.0305 252.712 31.7772C253.459 31.5239 254.307 31.4007 255.259 31.4007H255.608V30.5176H258.079V41.32H255.259C254.376 41.32 253.568 41.2173 252.836 41.0188V41.0256ZM251.809 28.8952C251.535 28.6761 251.405 28.3612 251.405 27.9505C251.405 27.574 251.535 27.2728 251.802 27.04C252.069 26.8073 252.391 26.6978 252.781 26.6978C253.171 26.6978 253.493 26.8141 253.76 27.04C254.027 27.2728 254.157 27.574 254.157 27.9505C254.157 28.3612 254.02 28.6761 253.753 28.8952C253.486 29.1143 253.157 29.2238 252.781 29.2238C252.404 29.2238 252.083 29.1143 251.809 28.8952ZM255.615 33.872H254.663C254.301 33.872 253.945 33.9267 253.589 34.0431C253.233 34.1526 252.918 34.3169 252.637 34.5291C252.356 34.7413 252.131 35.0015 251.959 35.3164C251.788 35.6313 251.706 35.9804 251.706 36.3843C251.706 36.7882 251.788 37.151 251.946 37.459C252.103 37.7671 252.315 38.0204 252.582 38.2326C252.849 38.4448 253.151 38.6023 253.486 38.7118C253.828 38.8213 254.177 38.8692 254.547 38.8692H255.622V33.8788L255.615 33.872ZM255.636 28.8952C255.362 28.6761 255.232 28.3612 255.232 27.9505C255.232 27.574 255.362 27.2728 255.629 27.04C255.896 26.8073 256.217 26.6978 256.608 26.6978C256.998 26.6978 257.333 26.8141 257.593 27.04C257.853 27.2659 257.984 27.574 257.984 27.9505C257.984 28.3612 257.847 28.6761 257.58 28.8952C257.306 29.1143 256.984 29.2238 256.608 29.2238C256.231 29.2238 255.909 29.1143 255.636 28.8952Z" fill="white"/>
<path d="M260.345 45.1603C260.126 45.1329 259.934 45.0918 259.784 45.0439L259.606 42.5795C259.839 42.6411 260.044 42.6822 260.222 42.7027C260.4 42.7233 260.578 42.737 260.77 42.737C261.262 42.737 261.605 42.6 261.803 42.3331C262.002 42.0661 262.098 41.6211 262.098 41.0119V31.4075H264.562V40.6627C264.562 41.4637 264.5 42.1482 264.37 42.7164C264.24 43.2846 264.035 43.7569 263.754 44.1266C263.474 44.4963 263.104 44.7701 262.659 44.9481C262.214 45.1261 261.673 45.2151 261.037 45.2151C260.804 45.2151 260.571 45.2014 260.352 45.174L260.345 45.1603Z" fill="white"/>
<path d="M270.374 27.0332V41.3268H267.91V27.0332H270.374Z" fill="white"/>
<path d="M272.968 45.1603C272.749 45.1329 272.558 45.0918 272.407 45.0439L272.229 42.5795C272.462 42.6411 272.667 42.6822 272.845 42.7027C273.023 42.7232 273.201 42.7369 273.393 42.7369C273.886 42.7369 274.228 42.6 274.427 42.333C274.625 42.0661 274.721 41.6211 274.721 41.0118V31.4074H277.185V40.6627C277.185 41.4636 277.124 42.1482 276.994 42.7164C276.864 43.2846 276.658 43.7569 276.378 44.1266C276.097 44.4962 275.727 44.7701 275.282 44.948C274.837 45.126 274.296 45.215 273.66 45.215C273.427 45.215 273.194 45.2013 272.975 45.174L272.968 45.1603ZM274.865 29.5728C274.577 29.3538 274.433 29.0183 274.433 28.5871C274.433 28.1969 274.57 27.882 274.844 27.6424C275.118 27.4028 275.467 27.2795 275.878 27.2795C276.289 27.2795 276.631 27.4028 276.912 27.6424C277.185 27.882 277.329 28.1969 277.329 28.5871C277.329 29.0252 277.185 29.3538 276.898 29.5728C276.61 29.7987 276.275 29.9083 275.885 29.9083C275.494 29.9083 275.159 29.7987 274.872 29.5728H274.865Z" fill="white"/>
<path d="M287.947 42.4974C287.796 43.0587 287.55 43.531 287.207 43.9349C286.858 44.332 286.4 44.6469 285.818 44.8659C285.236 45.085 284.51 45.2014 283.641 45.2014C283.408 45.2014 283.189 45.1945 282.99 45.174C282.792 45.1535 282.593 45.1329 282.402 45.0918C282.21 45.0576 282.005 45.0165 281.793 44.9686L281.074 44.7769L280.896 42.292C281.375 42.4426 281.827 42.559 282.237 42.6274C282.648 42.6959 283.059 42.7301 283.47 42.7301C283.812 42.7301 284.113 42.7164 284.366 42.689C284.627 42.6616 284.846 42.5932 285.03 42.4974C285.215 42.3947 285.359 42.2509 285.469 42.0661C285.578 41.8813 285.653 41.628 285.688 41.3268H285.407C284.558 41.3268 283.771 41.2309 283.038 41.0461C282.306 40.8544 281.662 40.5669 281.115 40.163C280.567 39.766 280.143 39.2525 279.828 38.6227C279.513 37.9929 279.362 37.2399 279.362 36.3568C279.362 35.5833 279.513 34.885 279.814 34.2758C280.115 33.6665 280.533 33.1463 281.067 32.7218C281.601 32.2974 282.237 31.9757 282.977 31.7429C283.716 31.5102 284.531 31.4006 285.407 31.4006H288.193L288.173 40.6559C288.173 41.3268 288.097 41.9429 287.954 42.4974H287.947ZM282.039 37.4385C282.19 37.7465 282.388 38.0135 282.648 38.2189C282.908 38.4311 283.21 38.5885 283.559 38.698C283.908 38.8076 284.277 38.8555 284.675 38.8555H285.715V33.865H284.675C284.312 33.865 283.956 33.9267 283.607 34.043C283.257 34.1594 282.956 34.3306 282.689 34.5428C282.422 34.7618 282.21 35.022 282.053 35.3232C281.895 35.6312 281.813 35.9735 281.813 36.3432C281.813 36.7539 281.888 37.1167 282.032 37.4248L282.039 37.4385Z" fill="white"/>
<path d="M2.13583 54.1487V64.4308H0V52.3826H3.62817L6.25688 62.5278L8.91982 52.3826H12.5138V64.4308H10.3779V54.1487L7.59862 64.4308H4.94253L2.14952 54.1487H2.13583Z" fill="white"/>
<path d="M15.3957 54.4705C15.1493 54.2788 15.0329 54.005 15.0329 53.6422C15.0329 53.3136 15.1493 53.0466 15.3821 52.8481C15.6148 52.6427 15.9023 52.54 16.2514 52.54C16.6006 52.54 16.8812 52.6427 17.114 52.8481C17.3399 53.0535 17.4563 53.3204 17.4563 53.6422C17.4563 53.9639 17.3467 54.2514 17.1208 54.45C16.8949 54.6485 16.6074 54.7512 16.2514 54.7512C15.9229 54.7512 15.6353 54.6553 15.3957 54.4705ZM17.2851 56.0587V64.424H15.2041V56.0587H17.2851Z" fill="white"/>
<path d="M20.6943 56.0243C21.0434 55.9695 21.3789 55.9284 21.7143 55.8874C22.0497 55.8531 22.3646 55.8258 22.659 55.7984C22.9534 55.771 23.2203 55.7642 23.4462 55.7642C23.9802 55.7642 24.4868 55.8121 24.9523 55.9148C25.4178 56.0174 25.8285 56.1954 26.1776 56.4487C26.5268 56.702 26.8006 57.058 26.9991 57.5029C27.1976 57.9479 27.3072 58.5161 27.3072 59.2007V64.4307H25.2261V59.7962C25.2261 59.0295 25.0687 58.5092 24.7469 58.2286C24.432 57.9479 23.9665 57.8041 23.3504 57.8041C23.1245 57.8041 22.8712 57.8178 22.6042 57.8521C22.3373 57.8795 22.0566 57.9205 21.7554 57.9684V64.4307H19.6743V56.2023C20.0029 56.1407 20.3383 56.0859 20.6875 56.0311L20.6943 56.0243Z" fill="white"/>
<path d="M29.7373 54.4705C29.4909 54.2788 29.3745 54.005 29.3745 53.6422C29.3745 53.3136 29.4909 53.0466 29.7236 52.8481C29.9564 52.6427 30.2439 52.54 30.593 52.54C30.9421 52.54 31.2228 52.6427 31.4555 52.8481C31.6815 53.0535 31.7978 53.3204 31.7978 53.6422C31.7978 53.9639 31.6883 54.2514 31.4624 54.45C31.2365 54.6485 30.949 54.7512 30.593 54.7512C30.2644 54.7512 29.9769 54.6553 29.7373 54.4705ZM31.6335 56.0587V64.424H29.5525V56.0587H31.6335Z" fill="white"/>
<path d="M38.3217 62.4249C38.6297 62.3291 38.7803 62.158 38.7803 61.9184C38.7803 61.6993 38.6845 61.5282 38.4928 61.4118C38.3011 61.2954 37.9383 61.179 37.4043 61.0695L36.7335 60.9531C35.7819 60.7751 35.0426 60.4808 34.5018 60.0632C33.9678 59.6456 33.7009 59.0774 33.7009 58.3518C33.7009 57.5577 34.0089 56.9279 34.6319 56.4624C35.248 55.9969 36.1037 55.7642 37.1921 55.7642C37.8562 55.7642 38.4996 55.8258 39.1157 55.9558C39.7318 56.0859 40.2795 56.2776 40.745 56.5377L39.9851 58.4682C39.7935 58.3723 39.5812 58.2765 39.3485 58.1944C39.1089 58.1122 38.8625 58.0369 38.6092 57.9821C38.349 57.9205 38.0889 57.8794 37.8288 57.8452C37.5686 57.8178 37.3153 57.7973 37.0826 57.7973C36.2132 57.7973 35.7751 57.9821 35.7751 58.345C35.7751 58.5366 35.8709 58.6872 36.0694 58.8105C36.268 58.9337 36.6308 59.0432 37.1511 59.1459L37.8082 59.2623C38.9446 59.4813 39.7592 59.8099 40.2521 60.2412C40.745 60.6725 40.9846 61.268 40.9846 62.021C40.9846 62.3907 40.9024 62.7261 40.745 63.041C40.5875 63.3559 40.348 63.6229 40.0331 63.8557C39.7182 64.0884 39.3211 64.2664 38.8351 64.3965C38.3559 64.5265 37.7945 64.5881 37.1647 64.5881C36.8293 64.5881 36.487 64.5676 36.1447 64.5265C35.8025 64.4855 35.467 64.4307 35.1453 64.3554C34.8167 64.2801 34.5086 64.1911 34.2143 64.0884C33.9199 63.9857 33.6529 63.8625 33.4202 63.7256L34.2074 61.7061C34.584 61.9526 35.0358 62.1579 35.5766 62.3154C36.1174 62.4728 36.6582 62.555 37.2264 62.555C37.6508 62.555 38.0204 62.5071 38.3285 62.4044L38.3217 62.4249Z" fill="white"/>
<path d="M43.5997 56.0585V52.9985H45.6808V56.0585H48.8572V57.989H45.6808V61.0216C45.6808 61.3091 45.7082 61.5487 45.7561 61.7335C45.804 61.9184 45.893 62.069 46.0094 62.1785C46.1258 62.288 46.2832 62.3702 46.468 62.4181C46.6529 62.466 46.8856 62.4934 47.1663 62.4934H48.9188V64.4239H46.9404C46.3585 64.4239 45.8588 64.3759 45.4412 64.2869C45.0236 64.198 44.6813 64.0474 44.4007 63.842C44.12 63.6366 43.9215 63.3628 43.7914 63.0274C43.6613 62.6919 43.5997 62.2675 43.5997 61.7609V57.989H42.0252V56.0585H43.5997Z" fill="white"/>
<path d="M54.4636 57.9205C54.3815 57.9205 54.2651 57.9205 54.1145 57.9274C53.9639 57.9274 53.7996 57.9411 53.6353 57.9548C53.471 57.9684 53.3204 57.989 53.1767 58.0095C53.0329 58.0301 52.9302 58.0506 52.8755 58.0711V64.4307H50.7944V56.2913C51.0545 56.2434 51.3284 56.1954 51.6227 56.1475C51.9171 56.0996 52.2114 56.0654 52.499 56.038C52.7865 56.0106 53.0671 55.9832 53.341 55.9627C53.6148 55.9421 53.8612 55.9353 54.0734 55.9353H55.6479V57.9274H54.4568L54.4636 57.9205Z" fill="white"/>
<path d="M57.9412 65.4713C58.1945 65.5466 58.4546 65.6151 58.7216 65.6699C58.9885 65.7315 59.2487 65.7725 59.502 65.8068C59.7553 65.8342 59.988 65.8478 60.1934 65.8478C60.5083 65.8478 60.8026 65.8205 61.0696 65.7657C61.3366 65.7109 61.5693 65.6288 61.761 65.5124C61.9527 65.396 62.1033 65.2523 62.2128 65.0811C62.3224 64.91 62.3771 64.6978 62.3771 64.4513V64.2733C61.8158 64.3897 61.2613 64.4513 60.7136 64.4513C60.166 64.4513 59.6868 64.4034 59.2418 64.3007C58.7969 64.2049 58.4135 64.0269 58.0918 63.7668C57.77 63.5066 57.5167 63.1575 57.3388 62.7126C57.1608 62.2676 57.0718 61.6994 57.0718 61.0217V56.0449H59.1665V60.4261C59.1665 60.8095 59.2008 61.1312 59.2624 61.3845C59.324 61.6378 59.4267 61.8432 59.5567 61.9938C59.6936 62.1444 59.8648 62.2539 60.0702 62.3224C60.2755 62.384 60.522 62.4182 60.8095 62.4182C61.0354 62.4182 61.275 62.4045 61.5283 62.3703C61.7816 62.3429 62.0622 62.2813 62.3703 62.1923V56.0381H64.4513V63.7805C64.4513 64.5198 64.376 65.1496 64.2391 65.6493C64.0954 66.1559 63.8558 66.5598 63.5203 66.8747C63.1849 67.1896 62.7399 67.4155 62.1854 67.5524C61.6309 67.6893 60.9395 67.7578 60.1044 67.7578C59.9332 67.7578 59.7484 67.7509 59.543 67.7304C59.3377 67.7098 59.1186 67.6825 58.9064 67.6482C58.6873 67.614 58.4751 67.5729 58.2698 67.5319C58.0644 67.4839 57.8727 67.4429 57.7016 67.3881L57.2566 65.218C57.462 65.307 57.6947 65.3892 57.948 65.4645L57.9412 65.4713Z" fill="white"/>
<path d="M73.3507 64.2596C72.803 64.0337 72.3238 63.7256 71.9199 63.3286C71.516 62.9384 71.1943 62.4729 70.9616 61.9321C70.7288 61.3913 70.6124 60.8094 70.6124 60.1864C70.6124 59.5635 70.7288 58.9816 70.9616 58.4476C71.1943 57.9137 71.5092 57.4482 71.9199 57.0443C72.3238 56.6404 72.803 56.3324 73.3507 56.0996C73.8983 55.8737 74.4939 55.7573 75.1442 55.7573C75.7945 55.7573 76.3833 55.8737 76.9309 56.0996C77.4786 56.3255 77.9578 56.6404 78.3685 57.0443C78.7792 57.4482 79.0941 57.9137 79.3269 58.4476C79.5596 58.9816 79.676 59.5635 79.676 60.1864C79.676 60.8094 79.5596 61.3913 79.3269 61.9321C79.0941 62.4729 78.7724 62.9384 78.3685 63.3286C77.9646 63.7188 77.4854 64.0268 76.9309 64.2596C76.3833 64.4855 75.7877 64.6018 75.1442 64.6018C74.5007 64.6018 73.9052 64.4855 73.3507 64.2596ZM76.1231 62.3839C76.4107 62.2606 76.6571 62.0895 76.8556 61.8773C77.0541 61.6651 77.2116 61.4118 77.3211 61.1174C77.4306 60.8231 77.4854 60.515 77.4854 60.1864C77.4854 59.8578 77.4306 59.5498 77.3211 59.2554C77.2116 58.9611 77.0541 58.7078 76.8556 58.4956C76.6571 58.2834 76.4038 58.1122 76.1231 57.9821C75.8356 57.8521 75.507 57.7905 75.1442 57.7905C74.7814 57.7905 74.4528 57.8521 74.1653 57.9821C73.8778 58.1122 73.6313 58.2834 73.4328 58.4956C73.2343 58.7078 73.07 58.9611 72.9673 59.2554C72.8578 59.5498 72.803 59.8578 72.803 60.1864C72.803 60.515 72.8578 60.8231 72.9673 61.1174C73.0768 61.4118 73.2343 61.6651 73.4328 61.8773C73.6313 62.0895 73.8846 62.2606 74.1653 62.3839C74.4528 62.5071 74.7814 62.5687 75.1442 62.5687C75.507 62.5687 75.8356 62.5071 76.1231 62.3839Z" fill="white"/>
<path d="M82.1199 56.0587V55.2577C82.1199 54.2583 82.3869 53.5258 82.914 53.0671C83.4411 52.6085 84.29 52.3757 85.4469 52.3757H87.4389V54.3062H85.4606C85.1936 54.3062 84.9745 54.3336 84.8171 54.3883C84.6528 54.4431 84.5227 54.5252 84.4269 54.6348C84.331 54.7443 84.2694 54.8812 84.242 55.0524C84.2147 55.2235 84.1941 55.422 84.1941 55.6479V56.0655H87.3705V57.996H84.1941V64.4308H82.1131V57.996H80.5386V56.0655H82.1131L82.1199 56.0587Z" fill="white"/>
<path d="M92.4979 54.3678V52.3757H102.677V54.3678H98.6658V64.424H96.5094V54.3678H92.4979Z" fill="white"/>
<path d="M104.717 64.2596C104.17 64.0337 103.69 63.7256 103.286 63.3286C102.883 62.9384 102.561 62.4729 102.328 61.9321C102.095 61.3913 101.979 60.8094 101.979 60.1864C101.979 59.5635 102.095 58.9816 102.328 58.4476C102.561 57.9137 102.876 57.4482 103.286 57.0443C103.69 56.6404 104.17 56.3324 104.717 56.0996C105.265 55.8737 105.86 55.7573 106.511 55.7573C107.161 55.7573 107.75 55.8737 108.297 56.0996C108.845 56.3255 109.324 56.6404 109.735 57.0443C110.146 57.4482 110.461 57.9137 110.693 58.4476C110.926 58.9816 111.043 59.5635 111.043 60.1864C111.043 60.8094 110.926 61.3913 110.693 61.9321C110.461 62.4729 110.139 62.9384 109.735 63.3286C109.331 63.7188 108.852 64.0268 108.297 64.2596C107.75 64.4855 107.154 64.6018 106.511 64.6018C105.867 64.6018 105.272 64.4855 104.717 64.2596ZM107.49 62.3839C107.777 62.2606 108.024 62.0895 108.222 61.8773C108.421 61.6651 108.578 61.4118 108.688 61.1174C108.797 60.8231 108.852 60.515 108.852 60.1864C108.852 59.8578 108.797 59.5498 108.688 59.2554C108.578 58.9611 108.421 58.7078 108.222 58.4956C108.024 58.2834 107.77 58.1122 107.49 57.9821C107.202 57.8521 106.874 57.7905 106.511 57.7905C106.148 57.7905 105.819 57.8521 105.532 57.9821C105.244 58.1122 104.998 58.2834 104.799 58.4956C104.601 58.7078 104.437 58.9611 104.334 59.2554C104.224 59.5498 104.17 59.8578 104.17 60.1864C104.17 60.515 104.224 60.8231 104.334 61.1174C104.443 61.4118 104.601 61.6651 104.799 61.8773C104.998 62.0895 105.251 62.2606 105.532 62.3839C105.819 62.5071 106.148 62.5687 106.511 62.5687C106.874 62.5687 107.202 62.5071 107.49 62.3839Z" fill="white"/>
<path d="M119.873 56.0586V63.9927C119.579 64.0885 119.291 64.1775 119.011 64.2528C118.73 64.3281 118.456 64.3897 118.169 64.4445C117.888 64.4992 117.594 64.5403 117.286 64.5608C116.978 64.5814 116.649 64.5951 116.293 64.5951C115.759 64.5951 115.259 64.5403 114.801 64.4239C114.342 64.3076 113.938 64.1159 113.596 63.8557C113.254 63.5888 112.987 63.2328 112.795 62.8015C112.603 62.3634 112.507 61.8226 112.507 61.1654V56.0518H114.589V60.5699C114.589 61.3297 114.719 61.8568 114.979 62.1375C115.239 62.4182 115.656 62.5619 116.245 62.5619C116.471 62.5619 116.711 62.5482 116.964 62.514C117.217 62.4866 117.498 62.4319 117.806 62.3497V56.0518H119.887L119.873 56.0586Z" fill="white"/>
<path d="M125.959 57.9205C125.877 57.9205 125.761 57.9205 125.61 57.9274C125.459 57.9274 125.295 57.9411 125.131 57.9548C124.967 57.9684 124.816 57.989 124.672 58.0095C124.528 58.0301 124.426 58.0506 124.371 58.0711V64.4307H122.29V56.2913C122.55 56.2434 122.824 56.1954 123.118 56.1475C123.413 56.0996 123.707 56.0654 123.994 56.038C124.282 56.0106 124.563 55.9832 124.836 55.9627C125.11 55.9421 125.357 55.9353 125.569 55.9353H127.143V57.9274H125.952L125.959 57.9205Z" fill="white"/>
<path d="M128.985 54.4705C128.739 54.2788 128.622 54.005 128.622 53.6422C128.622 53.3136 128.739 53.0466 128.971 52.8481C129.204 52.6427 129.492 52.54 129.841 52.54C130.19 52.54 130.47 52.6427 130.703 52.8481C130.929 53.0535 131.045 53.3204 131.045 53.6422C131.045 53.9639 130.936 54.2514 130.71 54.45C130.484 54.6485 130.197 54.7512 129.841 54.7512C129.512 54.7512 129.225 54.6553 128.985 54.4705ZM130.881 56.0587V64.424H128.8V56.0587H130.881Z" fill="white"/>
<path d="M137.562 62.4249C137.871 62.3291 138.021 62.158 138.021 61.9184C138.021 61.6993 137.925 61.5282 137.734 61.4118C137.542 61.2954 137.179 61.179 136.645 61.0695L135.974 60.9531C135.023 60.7751 134.283 60.4808 133.743 60.0632C133.209 59.6456 132.942 59.0774 132.942 58.3518C132.942 57.5577 133.25 56.9279 133.873 56.4624C134.489 55.9969 135.344 55.7642 136.433 55.7642C137.097 55.7642 137.74 55.8258 138.357 55.9558C138.973 56.0859 139.52 56.2776 139.986 56.5377L139.226 58.4682C139.034 58.3723 138.822 58.2765 138.589 58.1944C138.35 58.1122 138.103 58.0369 137.85 57.9821C137.59 57.9205 137.33 57.8794 137.07 57.8452C136.809 57.8178 136.556 57.7973 136.323 57.7973C135.454 57.7973 135.016 57.9821 135.016 58.345C135.016 58.5366 135.112 58.6872 135.31 58.8105C135.509 58.9337 135.872 59.0432 136.392 59.1459L137.049 59.2623C138.185 59.4813 139 59.8099 139.493 60.2412C139.986 60.6725 140.225 61.268 140.225 62.021C140.225 62.3907 140.143 62.7261 139.986 63.041C139.828 63.3559 139.589 63.6229 139.274 63.8557C138.959 64.0884 138.562 64.2664 138.076 64.3965C137.597 64.5265 137.035 64.5881 136.406 64.5881C136.07 64.5881 135.728 64.5676 135.386 64.5265C135.043 64.4855 134.708 64.4307 134.386 64.3554C134.058 64.2801 133.749 64.1911 133.455 64.0884C133.161 63.9857 132.894 63.8625 132.661 63.7256L133.448 61.7061C133.825 61.9526 134.277 62.1579 134.817 62.3154C135.358 62.4728 135.899 62.555 136.467 62.555C136.892 62.555 137.261 62.5071 137.569 62.4044L137.562 62.4249Z" fill="white"/>
<path d="M152.007 58.2149C151.747 57.9342 151.322 57.7973 150.754 57.7973C150.528 57.7973 150.268 57.8247 149.987 57.8863C149.707 57.9479 149.433 58.0369 149.179 58.1533C149.207 58.2149 149.241 58.3039 149.268 58.4339C149.296 58.564 149.323 58.7009 149.344 58.8515C149.364 59.0021 149.378 59.1527 149.392 59.3033C149.405 59.4539 149.405 59.5909 149.405 59.7141V64.4239H147.324V59.7757C147.324 59.3923 147.29 59.0706 147.228 58.8173C147.167 58.564 147.064 58.3655 146.92 58.2149C146.783 58.0643 146.605 57.9616 146.393 57.8931C146.181 57.8247 145.921 57.7973 145.627 57.7973C145.401 57.7973 145.182 57.8178 144.99 57.8589L144.264 57.9753V64.4239H142.183V56.2228C142.847 56.1064 143.484 55.9969 144.1 55.9011C144.716 55.8052 145.236 55.7573 145.661 55.7573C146.085 55.7573 146.544 55.8052 146.968 55.8942C147.393 55.9832 147.749 56.1407 148.023 56.3666C148.454 56.1886 148.933 56.0448 149.44 55.9285C149.946 55.8121 150.412 55.7573 150.829 55.7573C151.343 55.7573 151.822 55.8052 152.267 55.9079C152.712 56.0038 153.102 56.1886 153.424 56.4419C153.745 56.6952 154.006 57.0511 154.197 57.4961C154.389 57.9411 154.478 58.5093 154.478 59.1938V64.4239H152.397V59.7757C152.397 59.0158 152.267 58.4956 152.007 58.2149Z" fill="white"/>
<path d="M163.192 64.4581C162.713 64.3622 162.289 64.1979 161.926 63.9789C161.563 63.7598 161.276 63.4792 161.057 63.1232C160.838 62.7741 160.728 62.3359 160.728 61.8225C160.728 61.357 160.824 60.9463 161.016 60.5903C161.207 60.2343 161.474 59.94 161.816 59.7004C162.159 59.4608 162.569 59.2828 163.049 59.1664C163.528 59.05 164.048 58.9884 164.616 58.9884C164.842 58.9884 165.096 58.9953 165.369 59.009C165.643 59.0227 165.938 59.0569 166.252 59.1048V58.9884C166.252 58.5092 166.074 58.1943 165.718 58.0232C165.363 57.8521 164.897 57.7699 164.322 57.7699C164.103 57.7699 163.863 57.7905 163.61 57.8315C163.35 57.8726 163.09 57.9274 162.83 57.9958C162.57 58.0643 162.309 58.1464 162.063 58.2354C161.816 58.3244 161.584 58.4203 161.378 58.5161L161.645 56.3939C161.981 56.2228 162.412 56.0791 162.939 55.9558C163.466 55.8326 164.021 55.771 164.603 55.771C165.137 55.771 165.629 55.8326 166.088 55.949C166.547 56.0654 166.937 56.257 167.272 56.5103C167.608 56.7636 167.861 57.1127 168.053 57.5372C168.245 57.9616 168.333 58.475 168.333 59.0843V63.9583C167.8 64.1637 167.218 64.328 166.581 64.4444C165.944 64.5608 165.315 64.6155 164.692 64.6155C164.165 64.6155 163.665 64.5676 163.186 64.4649L163.192 64.4581ZM165.575 60.6725C165.315 60.6382 165.075 60.6177 164.849 60.6177C164.582 60.6177 164.336 60.6382 164.103 60.6725C163.87 60.7067 163.665 60.7683 163.487 60.8504C163.309 60.9326 163.165 61.049 163.062 61.1859C162.96 61.3228 162.905 61.4939 162.905 61.6925C162.905 62.0758 163.083 62.3496 163.432 62.5002C163.781 62.6508 164.219 62.733 164.733 62.733C164.993 62.733 165.253 62.7124 165.52 62.6714C165.787 62.6303 166.033 62.5755 166.259 62.4934V60.8025C166.061 60.7546 165.835 60.7135 165.575 60.6793V60.6725Z" fill="white"/>
<path d="M171.599 56.0243C171.948 55.9695 172.283 55.9284 172.619 55.8874C172.954 55.8531 173.269 55.8258 173.563 55.7984C173.858 55.771 174.125 55.7642 174.351 55.7642C174.885 55.7642 175.391 55.8121 175.857 55.9148C176.322 56.0174 176.733 56.1954 177.082 56.4487C177.431 56.702 177.705 57.058 177.904 57.5029C178.102 57.9479 178.212 58.5161 178.212 59.2007V64.4307H176.131V59.7962C176.131 59.0295 175.973 58.5092 175.651 58.2286C175.336 57.9479 174.871 57.8041 174.255 57.8041C174.029 57.8041 173.776 57.8178 173.509 57.8521C173.242 57.8795 172.961 57.9205 172.66 57.9684V64.4307H170.579V56.2023C170.907 56.1407 171.243 56.0859 171.592 56.0311L171.599 56.0243Z" fill="white"/>
<path d="M187.987 52.3757V64.1707C186.947 64.4582 185.831 64.602 184.633 64.602C183.859 64.602 183.168 64.4925 182.566 64.2666C181.963 64.0407 181.45 63.7326 181.025 63.3356C180.608 62.9385 180.286 62.473 180.067 61.9391C179.848 61.4051 179.738 60.8232 179.738 60.2003C179.738 59.5773 179.848 58.9954 180.074 58.4546C180.3 57.9138 180.615 57.4415 181.032 57.0444C181.45 56.6406 181.949 56.3325 182.524 56.0998C183.106 55.8739 183.75 55.7575 184.462 55.7575C184.653 55.7575 184.866 55.7643 185.105 55.7849C185.352 55.8054 185.612 55.8328 185.899 55.8739V52.3689H187.98L187.987 52.3757ZM182.655 62.0007C183.141 62.384 183.791 62.5757 184.612 62.5757C184.989 62.5757 185.42 62.5209 185.906 62.4114V57.9823C185.646 57.9138 185.413 57.8659 185.208 57.8385C185.003 57.8112 184.804 57.8043 184.612 57.8043C183.791 57.8043 183.141 58.0028 182.655 58.3999C182.168 58.7969 181.929 59.3993 181.929 60.214C181.929 61.0286 182.175 61.6242 182.655 62.0007Z" fill="white"/>
<path d="M195.141 52.3757H197.277V57.2361H203.054V52.3757H205.211V64.424H203.054V59.2556H197.277V64.424H195.141V52.3757Z" fill="white"/>
<path d="M209.914 64.4581C209.434 64.3622 209.01 64.1979 208.647 63.9789C208.284 63.7598 207.997 63.4792 207.778 63.1232C207.559 62.7741 207.449 62.3359 207.449 61.8225C207.449 61.357 207.545 60.9463 207.737 60.5903C207.928 60.2343 208.195 59.94 208.538 59.7004C208.88 59.4608 209.291 59.2828 209.77 59.1664C210.249 59.05 210.769 58.9884 211.338 58.9884C211.563 58.9884 211.817 58.9953 212.091 59.009C212.364 59.0227 212.659 59.0569 212.974 59.1048V58.9884C212.974 58.5092 212.796 58.1943 212.44 58.0232C212.084 57.8521 211.618 57.7699 211.043 57.7699C210.824 57.7699 210.585 57.7905 210.331 57.8315C210.071 57.8726 209.811 57.9274 209.551 57.9958C209.291 58.0643 209.031 58.1464 208.784 58.2354C208.538 58.3244 208.305 58.4203 208.1 58.5161L208.367 56.3939C208.702 56.2228 209.133 56.0791 209.66 55.9558C210.187 55.8326 210.742 55.771 211.324 55.771C211.858 55.771 212.351 55.8326 212.809 55.949C213.268 56.0654 213.658 56.257 213.994 56.5103C214.329 56.7636 214.582 57.1127 214.774 57.5372C214.966 57.9616 215.055 58.475 215.055 59.0843V63.9583C214.521 64.1637 213.939 64.328 213.302 64.4444C212.666 64.5608 212.036 64.6155 211.413 64.6155C210.886 64.6155 210.386 64.5676 209.907 64.4649L209.914 64.4581ZM212.296 60.6725C212.036 60.6382 211.796 60.6177 211.57 60.6177C211.303 60.6177 211.057 60.6382 210.824 60.6725C210.591 60.7067 210.386 60.7683 210.208 60.8504C210.03 60.9326 209.886 61.049 209.784 61.1859C209.681 61.3228 209.626 61.4939 209.626 61.6925C209.626 62.0758 209.804 62.3496 210.153 62.5002C210.502 62.6508 210.94 62.733 211.454 62.733C211.714 62.733 211.974 62.7124 212.241 62.6714C212.508 62.6303 212.755 62.5755 212.98 62.4934V60.8025C212.782 60.7546 212.556 60.7135 212.296 60.6793V60.6725Z" fill="white"/>
<path d="M218.32 56.0243C218.669 55.9695 219.005 55.9284 219.34 55.8874C219.675 55.8531 219.99 55.8258 220.285 55.7984C220.579 55.771 220.846 55.7642 221.072 55.7642C221.606 55.7642 222.113 55.8121 222.578 55.9148C223.044 56.0174 223.454 56.1954 223.803 56.4487C224.152 56.702 224.426 57.058 224.625 57.5029C224.823 57.9479 224.933 58.5161 224.933 59.2007V64.4307H222.852V59.7962C222.852 59.0295 222.694 58.5092 222.373 58.2286C222.058 57.9479 221.592 57.8041 220.976 57.8041C220.75 57.8041 220.497 57.8178 220.23 57.8521C219.963 57.8795 219.682 57.9205 219.381 57.9684V64.4307H217.3V56.2023C217.629 56.1407 217.964 56.0859 218.313 56.0311L218.32 56.0243Z" fill="white"/>
<path d="M234.715 52.3757V64.1707C233.675 64.4582 232.559 64.602 231.361 64.602C230.587 64.602 229.896 64.4925 229.294 64.2666C228.691 64.0407 228.178 63.7326 227.753 63.3356C227.336 62.9385 227.014 62.473 226.795 61.9391C226.576 61.4051 226.466 60.8232 226.466 60.2003C226.466 59.5773 226.576 58.9954 226.802 58.4546C227.028 57.9138 227.343 57.4415 227.76 57.0444C228.178 56.6406 228.678 56.3325 229.253 56.0998C229.834 55.8739 230.478 55.7575 231.19 55.7575C231.382 55.7575 231.594 55.7643 231.833 55.7849C232.08 55.8054 232.34 55.8328 232.627 55.8739V52.3689H234.708L234.715 52.3757ZM229.376 62.0007C229.862 62.384 230.512 62.5757 231.334 62.5757C231.71 62.5757 232.141 62.5209 232.627 62.4114V57.9823C232.367 57.9138 232.135 57.8659 231.929 57.8385C231.724 57.8112 231.525 57.8043 231.334 57.8043C230.512 57.8043 229.862 58.0028 229.376 58.3999C228.89 58.7969 228.65 59.3993 228.65 60.214C228.65 61.0286 228.897 61.6242 229.376 62.0007Z" fill="white"/>
<path d="M237.31 54.4705C237.063 54.2788 236.947 54.005 236.947 53.6422C236.947 53.3136 237.063 53.0466 237.296 52.8481C237.529 52.6427 237.816 52.54 238.165 52.54C238.515 52.54 238.795 52.6427 239.028 52.8481C239.254 53.0535 239.37 53.3204 239.37 53.6422C239.37 53.9639 239.261 54.2514 239.035 54.45C238.809 54.6485 238.521 54.7512 238.165 54.7512C237.837 54.7512 237.549 54.6553 237.31 54.4705ZM239.206 56.0587V64.424H237.125V56.0587H239.206Z" fill="white"/>
<path d="M241.219 58.4339C241.445 57.8931 241.753 57.4276 242.156 57.0306C242.56 56.6335 243.033 56.3255 243.58 56.0996C244.128 55.8737 244.724 55.7642 245.374 55.7642C245.949 55.7642 246.469 55.8258 246.935 55.9421C247.4 56.0585 247.845 56.2297 248.27 56.4487L247.441 58.3176C247.161 58.1601 246.859 58.0301 246.538 57.9411C246.209 57.8452 245.853 57.7973 245.47 57.7973C245.114 57.7973 244.785 57.8521 244.491 57.9684C244.196 58.0848 243.943 58.2491 243.731 58.4613C243.526 58.6735 243.361 58.9268 243.252 59.2212C243.142 59.5156 243.081 59.8373 243.081 60.1933C243.081 60.5492 243.135 60.8778 243.252 61.1653C243.368 61.4529 243.526 61.7062 243.731 61.9184C243.936 62.1237 244.19 62.288 244.491 62.3976C244.785 62.5139 245.114 62.5687 245.47 62.5687C245.853 62.5687 246.209 62.5208 246.538 62.4318C246.866 62.3428 247.167 62.2127 247.441 62.0416L248.27 63.931C247.845 64.15 247.4 64.3143 246.935 64.4307C246.469 64.5471 245.949 64.6018 245.374 64.6018C244.73 64.6018 244.135 64.4923 243.58 64.2664C243.033 64.0405 242.553 63.7324 242.156 63.3422C241.759 62.952 241.445 62.4865 241.219 61.9457C240.993 61.4049 240.883 60.8162 240.883 60.1864C240.883 59.5566 240.993 58.9679 241.219 58.4271V58.4339Z" fill="white"/>
<path d="M253.561 57.9205C253.479 57.9205 253.363 57.9205 253.212 57.9274C253.062 57.9274 252.897 57.9411 252.733 57.9548C252.569 57.9684 252.418 57.989 252.274 58.0095C252.131 58.0301 252.028 58.0506 251.973 58.0711V64.4307H249.892V56.2913C250.152 56.2434 250.426 56.1954 250.72 56.1475C251.015 56.0996 251.309 56.0654 251.597 56.038C251.884 56.0106 252.165 55.9832 252.439 55.9627C252.712 55.9421 252.959 55.9353 253.171 55.9353H254.746V57.9274H253.554L253.561 57.9205Z" fill="white"/>
<path d="M258.401 64.4581C257.922 64.3622 257.498 64.1979 257.135 63.9789C256.772 63.7598 256.484 63.4792 256.265 63.1232C256.046 62.7741 255.937 62.3359 255.937 61.8225C255.937 61.357 256.033 60.9463 256.224 60.5903C256.416 60.2343 256.683 59.94 257.025 59.7004C257.367 59.4608 257.778 59.2828 258.257 59.1664C258.737 59.05 259.257 58.9884 259.825 58.9884C260.051 58.9884 260.304 58.9953 260.578 59.009C260.852 59.0227 261.146 59.0569 261.461 59.1048V58.9884C261.461 58.5092 261.283 58.1943 260.927 58.0232C260.571 57.8521 260.106 57.7699 259.531 57.7699C259.312 57.7699 259.072 57.7905 258.819 57.8315C258.559 57.8726 258.299 57.9274 258.038 57.9958C257.778 58.0643 257.518 58.1464 257.272 58.2354C257.025 58.3244 256.792 58.4203 256.587 58.5161L256.854 56.3939C257.19 56.2228 257.621 56.0791 258.148 55.9558C258.675 55.8326 259.23 55.771 259.811 55.771C260.345 55.771 260.838 55.8326 261.297 55.949C261.756 56.0654 262.146 56.257 262.481 56.5103C262.817 56.7636 263.07 57.1127 263.262 57.5372C263.453 57.9616 263.542 58.475 263.542 59.0843V63.9583C263.008 64.1637 262.426 64.328 261.79 64.4444C261.153 64.5608 260.523 64.6155 259.9 64.6155C259.373 64.6155 258.874 64.5676 258.394 64.4649L258.401 64.4581ZM260.79 60.6725C260.53 60.6382 260.291 60.6177 260.065 60.6177C259.798 60.6177 259.551 60.6382 259.318 60.6725C259.086 60.7067 258.88 60.7683 258.702 60.8504C258.524 60.9326 258.381 61.049 258.278 61.1859C258.175 61.3228 258.121 61.4939 258.121 61.6925C258.121 62.0758 258.298 62.3496 258.648 62.5002C258.997 62.6508 259.435 62.733 259.948 62.733C260.208 62.733 260.469 62.7124 260.736 62.6714C261.003 62.6303 261.249 62.5755 261.475 62.4934V60.8025C261.276 60.7546 261.05 60.7135 260.79 60.6793V60.6725Z" fill="white"/>
<path d="M266.541 56.0587V55.2577C266.541 54.2583 266.808 53.5258 267.335 53.0671C267.862 52.6085 268.711 52.3757 269.868 52.3757H271.86V54.3062H269.881C269.614 54.3062 269.395 54.3336 269.238 54.3883C269.073 54.4431 268.943 54.5252 268.848 54.6348C268.752 54.7443 268.69 54.8812 268.663 55.0524C268.635 55.2235 268.615 55.422 268.615 55.6479V56.0655H271.791V57.996H268.615V64.4308H266.534V57.996H264.959V56.0655H266.534L266.541 56.0587Z" fill="white"/>
<path d="M274.036 56.0585V52.9985H276.117V56.0585H279.301V57.989H276.117V61.0216C276.117 61.3091 276.145 61.5487 276.193 61.7335C276.241 61.9184 276.33 62.069 276.446 62.1785C276.562 62.288 276.72 62.3702 276.905 62.4181C277.096 62.466 277.322 62.4934 277.603 62.4934H279.355V64.4239H277.377C276.795 64.4239 276.295 64.3759 275.878 64.2869C275.46 64.198 275.118 64.0474 274.837 63.842C274.557 63.6366 274.358 63.3628 274.228 63.0274C274.098 62.6919 274.036 62.2675 274.036 61.7609V57.989H272.462V56.0585H274.036Z" fill="white"/>
<path d="M285.523 62.4249C285.831 62.3291 285.982 62.158 285.982 61.9184C285.982 61.6993 285.886 61.5282 285.695 61.4118C285.503 61.2954 285.14 61.179 284.606 61.0695L283.935 60.9531C282.984 60.7751 282.244 60.4808 281.704 60.0632C281.17 59.6456 280.903 59.0774 280.903 58.3518C280.903 57.5577 281.211 56.9279 281.834 56.4624C282.45 55.9969 283.305 55.7642 284.394 55.7642C285.058 55.7642 285.701 55.8258 286.317 55.9558C286.934 56.0859 287.481 56.2776 287.947 56.5377L287.187 58.4682C286.995 58.3723 286.783 58.2765 286.55 58.1944C286.311 58.1122 286.064 58.0369 285.811 57.9821C285.551 57.9205 285.291 57.8794 285.031 57.8452C284.77 57.8178 284.517 57.7973 284.284 57.7973C283.415 57.7973 282.977 57.9821 282.977 58.345C282.977 58.5366 283.073 58.6872 283.271 58.8105C283.47 58.9337 283.833 59.0432 284.353 59.1459L285.01 59.2623C286.146 59.4813 286.961 59.8099 287.454 60.2412C287.947 60.6725 288.186 61.268 288.186 62.021C288.186 62.3907 288.104 62.7261 287.947 63.041C287.789 63.3559 287.55 63.6229 287.235 63.8557C286.92 64.0884 286.523 64.2664 286.037 64.3965C285.558 64.5265 284.996 64.5881 284.366 64.5881C284.031 64.5881 283.689 64.5676 283.347 64.5265C283.004 64.4855 282.669 64.4307 282.347 64.3554C282.018 64.2801 281.71 64.1911 281.416 64.0884C281.122 63.9857 280.855 63.8625 280.622 63.7256L281.409 61.7061C281.786 61.9526 282.238 62.1579 282.778 62.3154C283.319 62.4728 283.86 62.555 284.428 62.555C284.853 62.555 285.222 62.5071 285.53 62.4044L285.523 62.4249Z" fill="white"/>
<path fill-rule="evenodd" clip-rule="evenodd" d="M345.242 4.84676L347.007 0L347.724 0.26094L345.941 5.15647C352.757 8.30323 357.537 14.2508 359.394 21.0874C357.26 17.1403 353.725 13.9204 349.163 12.2647C347.38 11.6167 345.563 11.2509 343.76 11.1444L331.308 45.3396C332.743 46.398 334.354 47.2713 336.117 47.9121C340.676 49.5663 345.455 49.376 349.638 47.7288C343.82 51.7509 336.358 53.2408 329.134 51.3078L327.506 55.7798L326.789 55.5188L328.399 51.0988C327.948 50.9634 327.499 50.8144 327.051 50.6517C314.221 45.9866 307.616 31.8447 312.293 19.0612C316.975 6.27778 331.169 -0.303758 343.999 4.35683C344.42 4.51003 344.834 4.67347 345.242 4.84676ZM342.96 11.114C335.069 10.9817 327.608 15.7865 324.751 23.5892C321.888 31.4118 324.515 39.896 330.674 44.8514L342.96 11.114ZM349.638 47.7288L349.645 47.7246H349.649L349.638 47.7288ZM328.931 12.4433C330.633 12.4433 332.012 11.0641 332.012 9.36273C332.012 7.6614 330.633 6.28221 328.931 6.28221C327.23 6.28221 325.851 7.6614 325.851 9.36273C325.851 11.0641 327.23 12.4433 328.931 12.4433ZM325.166 13.8124C325.166 15.3247 323.94 16.5506 322.428 16.5506C320.916 16.5506 319.69 15.3247 319.69 13.8124C319.69 12.3001 320.916 11.0741 322.428 11.0741C323.94 11.0741 325.166 12.3001 325.166 13.8124ZM322.428 21.0002C322.428 23.0796 320.742 24.7653 318.663 24.7653C316.583 24.7653 314.898 23.0796 314.898 21.0002C314.898 18.9209 316.583 17.2352 318.663 17.2352C320.742 17.2352 322.428 18.9209 322.428 21.0002ZM316.952 32.2955C318.464 32.2955 319.69 31.0695 319.69 29.5573C319.69 28.045 318.464 26.819 316.952 26.819C315.439 26.819 314.213 28.045 314.213 29.5573C314.213 31.0695 315.439 32.2955 316.952 32.2955ZM321.743 37.0874C321.743 38.5997 320.517 39.8257 319.005 39.8257C317.493 39.8257 316.267 38.5997 316.267 37.0874C316.267 35.5751 317.493 34.3492 319.005 34.3492C320.517 34.3492 321.743 35.5751 321.743 37.0874ZM425.797 2.86402L425.793 2.86709L425.797 2.8594V2.86402ZM425.793 2.86709C415.389 25.8556 402.808 25.7031 396.746 25.6292C412.097 24.7232 421.006 8.00409 421.23 7.09811C419.548 8.24625 415.832 8.53459 410.055 8.98281C405.553 9.33218 399.798 9.77869 392.779 10.8052C378.304 12.9223 374.642 25.5971 373.408 29.8675C373.276 30.3244 373.172 30.6851 373.085 30.9264C375.629 13.8329 385.664 8.6882 394.875 7.78222C422.332 5.62933 425.673 2.96981 425.793 2.86709ZM387.461 41.1948C387.461 41.1948 407.254 50.6068 418.267 47.9913C417.812 48.1177 417.336 48.2582 416.839 48.4051C410.588 50.2524 400.974 53.0934 387.461 41.1948ZM423.743 60.1879C415.364 59.1921 401.152 52.1478 401.152 52.1478C411.722 61.192 419.94 60.5045 423.247 60.2277C423.427 60.2127 423.592 60.1989 423.743 60.1879ZM364.815 29.6528C364.815 29.6528 363.432 29.3139 357.381 24.6703C357.154 24.5216 356.931 24.3737 356.711 24.2276L356.71 24.227L356.707 24.2253L356.706 24.2244C352.602 21.5033 349.458 19.4189 343.219 24.1849L338.173 27.8943C338.173 27.8943 346.991 30.9305 351.216 40.4466C354.618 48.8041 356.371 52.7378 359.322 54.9451C362.272 57.1524 365.487 58.9934 372.401 58.9934C360.905 57.5486 357.94 50.8234 354.847 43.8121C352.039 37.4452 349.127 30.8423 339.63 27.7432C340.459 27.3991 341.427 26.829 342.477 26.2108C344.739 24.879 347.38 23.324 349.832 23.324C351.558 23.324 354.121 24.7885 356.783 26.3091C359.656 27.9506 362.644 29.6574 364.815 29.6574V29.6528ZM347.767 25.002C348.356 24.7587 349.028 24.6905 349.694 24.856V24.8609C351.257 25.2503 352.184 26.7542 351.762 28.2144C351.346 29.6745 349.736 30.5409 348.174 30.1466C348.028 30.1126 347.892 30.0639 347.757 30.0103C348.543 29.6891 349.174 29.0515 349.413 28.2144C349.793 26.8905 349.064 25.5374 347.767 25.002ZM406.629 64.4247C406.629 64.4247 397.97 57.5806 391.345 57.5806C388.07 57.5806 385.954 58.5988 383.814 59.6284C381.626 60.6813 379.413 61.7462 375.909 61.7462C372.676 61.7462 369.975 60.839 367.093 59.8713C363.8 58.7655 360.272 57.5806 355.445 57.5806C350.447 57.5806 347.315 59.0327 344.509 60.3331C342.234 61.3874 340.175 62.3419 337.511 62.3419C332.394 62.3419 322.851 58.7917 319.012 56.5429C318.719 56.3366 318.434 56.1348 318.156 55.9385L318.15 55.9338L318.144 55.9301L318.143 55.9291C317.971 55.8073 317.802 55.6877 317.636 55.5706C317.915 55.8465 318.388 56.1775 319.012 56.5429C324.309 60.2734 332.093 65.4661 340.447 65.4661C344.103 65.4661 346.515 64.2988 348.996 63.0981C351.622 61.8269 354.326 60.5183 358.666 60.5183C362.934 60.5183 366.004 61.8795 369.039 63.2248C372.005 64.5394 374.937 65.839 378.918 65.839C383.279 65.839 385.328 64.2478 387.208 62.7882C388.8 61.5515 390.271 60.4092 392.923 60.4092C401.655 60.4092 406.624 64.4247 406.624 64.4247H406.629ZM375.799 70.981C375.808 70.9835 375.816 70.9857 375.824 70.9875V70.9919C375.824 70.9919 375.801 70.9834 375.758 70.9677C375.773 70.9729 375.787 70.9773 375.799 70.981ZM375.758 70.9677L375.719 70.9538C375.733 70.9589 375.746 70.9636 375.758 70.9677ZM375.719 70.9538C375.098 70.7327 371.795 69.6227 368.079 69.6227C364.035 69.6227 361.776 70.2227 359.528 70.8199C357.301 71.4113 355.084 72 351.154 72C343.258 72 335.435 68.0731 335.435 68.0731H341.69C344.456 68.0731 346.514 67.427 348.693 66.7428C351.146 65.9727 353.752 65.1544 357.695 65.1544C363.666 65.1544 371.138 68.7663 374.329 70.3088L374.33 70.309L374.331 70.3094C374.999 70.6326 375.48 70.8648 375.719 70.9538Z" fill="white"/>
</svg>
